<svg width="170" height="170" viewBox="0 0 170 170" fill="none" xmlns="http://www.w3.org/2000/svg">
<mask id="mask0" mask-type="alpha" maskUnits="userSpaceOnUse" x="0" y="0" width="170" height="170">
<rect width="170" height="170" fill="#C4C4C4"/>
</mask>
<g mask="url(#mask0)">
<rect x="85" y="31" width="60.7857" height="109.679" fill="#FFB300"/>
<rect x="85" y="31" width="60.7857" height="109.679" fill="url(#paint0_linear)" fill-opacity="0.2"/>
<rect x="24.2143" y="31" width="60.7857" height="109.679" fill="#FFC107"/>
<rect x="24.2143" y="31" width="60.7857" height="109.679" fill="url(#paint1_linear)" fill-opacity="0.2"/>
<ellipse cx="85" cy="30.3393" rx="60.7857" ry="21.8036" fill="url(#paint2_linear)"/>
<path d="M159 31C159 50.626 151.204 69.4482 137.326 83.3259C123.448 97.2036 104.626 105 85 105C65.374 105 46.5518 97.2036 32.6741 83.3259C18.7964 69.4482 11 50.626 11 31L17.4173 31C17.4173 48.9241 24.5376 66.114 37.2118 78.7882C49.886 91.4624 67.076 98.5827 85 98.5827C102.924 98.5827 120.114 91.4624 132.788 78.7882C145.462 66.114 152.583 48.924 152.583 31H159Z" fill="#C4C4C4"/>
<rect x="16.2857" y="31" width="7.92857" height="6.60714" fill="#C4C4C4"/>
<rect x="145.786" y="31" width="7.92857" height="6.60714" fill="#C4C4C4"/>
<mask id="mask1" mask-type="alpha" maskUnits="userSpaceOnUse" x="24" y="140" width="61" height="22">
<rect x="24.2143" y="140.679" width="60.7857" height="21.1429" fill="#C4C4C4"/>
</mask>
<g mask="url(#mask1)">
<ellipse cx="85" cy="140.018" rx="60.7857" ry="21.8036" fill="#FFC107"/>
</g>
<mask id="mask2" mask-type="alpha" maskUnits="userSpaceOnUse" x="85" y="140" width="61" height="22">
<rect x="85" y="140.679" width="60.7857" height="21.1429" fill="#C4C4C4"/>
</mask>
<g mask="url(#mask2)">
<ellipse cx="85" cy="140.018" rx="60.7857" ry="21.8036" fill="#FFB300"/>
</g>
<mask id="mask3" mask-type="alpha" maskUnits="userSpaceOnUse" x="24" y="8" width="122" height="45">
<ellipse cx="85" cy="30.3393" rx="60.7857" ry="21.8036" fill="url(#paint3_linear)"/>
</mask>
<g mask="url(#mask3)">
<g filter="url(#filter0_d)">
<mask id="mask4" mask-type="alpha" maskUnits="userSpaceOnUse" x="40" y="12" width="103" height="122">
<rect x="46.9134" y="51.5973" width="77.9643" height="84.2757" transform="rotate(-14 46.9134 51.5973)" fill="white"/>
<rect x="40.6263" y="26.3811" width="59.4013" height="25.9881" transform="rotate(-14 40.6263 26.3811)" fill="#C4C4C4"/>
<rect x="108.518" y="28.5851" width="12.6228" height="20.4192" transform="rotate(-14 108.518 28.5851)" fill="#C4C4C4"/>
<rect x="87.4724" y="29.9694" width="20.9513" height="26.2519" transform="rotate(-59 87.4724 29.9694)" fill="#C4C4C4"/>
</mask>
<g mask="url(#mask4)">
<rect x="40.6263" y="26.3811" width="77.9643" height="110.264" rx="8" transform="rotate(-14 40.6263 26.3811)" fill="white"/>
</g>
<mask id="mask5" mask-type="alpha" maskUnits="userSpaceOnUse" x="92" y="12" width="29" height="25">
<rect width="26.054" height="12.2739" transform="matrix(-0.857167 -0.515038 -0.515038 0.857167 120.821 25.7558)" fill="#C4C4C4"/>
</mask>
<g mask="url(#mask5)">
<rect x="97.1854" y="7.6879" width="24.1318" height="23.3893" rx="8" transform="rotate(-14 97.1854 7.6879)" fill="#CDCDCD"/>
</g>
<rect x="119.955" y="25.3508" width="0.742517" height="0.742517" transform="rotate(-14 119.955 25.3508)" fill="#CDCDCD"/>
<mask id="mask6" mask-type="alpha" maskUnits="userSpaceOnUse" x="91" y="12" width="30" height="25">
<rect width="26.2519" height="12.3671" transform="matrix(-0.857167 -0.515038 -0.515038 0.857167 120.765 25.5314)" fill="#C4C4C4"/>
</mask>
<g mask="url(#mask6)">
<rect x="97.0955" y="7.32765" width="24.1318" height="23.3893" rx="8" transform="rotate(-14 97.0955 7.32765)" fill="#F2F2F2"/>
</g>
<rect x="50.9815" y="33.1573" width="44.9286" height="2.59881" transform="rotate(-14 50.9815 33.1573)" fill="#E0E0E0"/>
<rect x="52.3287" y="38.5607" width="44.9286" height="2.59881" transform="rotate(-14 52.3287 38.5607)" fill="#E0E0E0"/>
<rect x="53.676" y="43.9642" width="44.9286" height="2.59881" transform="rotate(-14 53.676 43.9642)" fill="#E0E0E0"/>
<rect x="55.0232" y="49.3676" width="44.9286" height="2.59881" transform="rotate(-14 55.0232 49.3676)" fill="#E0E0E0"/>
<rect x="56.3705" y="54.7711" width="44.9286" height="2.59881" transform="rotate(-14 56.3705 54.7711)" fill="#E0E0E0"/>
<rect x="57.7177" y="60.1746" width="44.9286" height="2.59881" transform="rotate(-14 57.7177 60.1746)" fill="#E0E0E0"/>
</g>
</g>
</g>
<defs>
<filter id="filter0_d" x="38.6263" y="12.0106" width="106.324" height="127.359" filterUnits="userSpaceOnUse" color-interpolation-filters="sRGB">
<feFlood flood-opacity="0" result="BackgroundImageFix"/>
<feColorMatrix in="SourceAlpha" type="matrix" values="0 0 0 0 0 0 0 0 0 0 0 0 0 0 0 0 0 0 127 0"/>
<feOffset dy="4"/>
<feGaussianBlur stdDeviation="1"/>
<feColorMatrix type="matrix" values="0 0 0 0 0 0 0 0 0 0 0 0 0 0 0 0 0 0 0.25 0"/>
<feBlend mode="normal" in2="BackgroundImageFix" result="effect1_dropShadow"/>
<feBlend mode="normal" in="SourceGraphic" in2="effect1_dropShadow" result="shape"/>
</filter>
<linearGradient id="paint0_linear" x1="115.393" y1="31" x2="115.393" y2="140.679" gradientUnits="userSpaceOnUse">
<stop stop-color="white"/>
<stop offset="1" stop-color="white" stop-opacity="0"/>
</linearGradient>
<linearGradient id="paint1_linear" x1="54.6071" y1="31" x2="54.6071" y2="140.679" gradientUnits="userSpaceOnUse">
<stop stop-color="white"/>
<stop offset="1" stop-color="white" stop-opacity="0"/>
</linearGradient>
<linearGradient id="paint2_linear" x1="85" y1="8.53572" x2="85" y2="52.1429" gradientUnits="userSpaceOnUse">
<stop stop-color="#FFB300"/>
<stop offset="1" stop-color="#FF8F00"/>
</linearGradient>
<linearGradient id="paint3_linear" x1="85" y1="8.53572" x2="85" y2="52.1429" gradientUnits="userSpaceOnUse">
<stop stop-color="#FFB300"/>
<stop offset="1" stop-color="#FF8F00"/>
</linearGradient>
</defs>
</svg>
