<svg width="200" height="200" viewBox="0 0 200 200" fill="none" xmlns="http://www.w3.org/2000/svg">
<circle cx="100" cy="100" r="100" fill="#FFB300"/>
<mask id="mask0" mask-type="alpha" maskUnits="userSpaceOnUse" x="59" y="42" width="82" height="116">
<rect x="59" y="69.3333" width="82" height="88.638" fill="white"/>
<rect x="59" y="42" width="62.4762" height="27.3333" fill="#C4C4C4"/>
<rect x="127.724" y="61.5238" width="13.2762" height="21.4762" fill="#C4C4C4"/>
<rect x="105.895" y="57.5816" width="22.0358" height="27.6108" transform="rotate(-45 105.895 57.5816)" fill="#C4C4C4"/>
</mask>
<g mask="url(#mask0)">
<rect x="59" y="42" width="82" height="115.971" rx="8" fill="white"/>
</g>
<mask id="mask1" mask-type="alpha" maskUnits="userSpaceOnUse" x="112" y="42" width="29" height="29">
<rect width="27.4026" height="12.9092" transform="matrix(-0.707107 -0.707107 -0.707107 0.707107 141 61.7671)" fill="#C4C4C4"/>
</mask>
<g mask="url(#mask1)">
<rect x="121.476" y="37.3143" width="25.3809" height="24.6" rx="8" fill="#CDCDCD"/>
</g>
<rect x="140.219" y="61.1333" width="0.780952" height="0.780952" fill="#CDCDCD"/>
<mask id="mask2" mask-type="alpha" maskUnits="userSpaceOnUse" x="112" y="42" width="29" height="29">
<rect width="27.6108" height="13.0073" transform="matrix(-0.707107 -0.707107 -0.707107 0.707107 141 61.5238)" fill="#C4C4C4"/>
</mask>
<g mask="url(#mask2)">
<rect x="121.476" y="36.9238" width="25.3809" height="24.6" rx="8" fill="#F2F2F2"/>
</g>
<rect x="70" y="78" width="59.3524" height="2.73333" fill="#E0E0E0"/>
<rect x="70" y="83.8571" width="59.3524" height="2.73333" fill="#E0E0E0"/>
<rect x="70" y="89.7143" width="59.3524" height="2.73333" fill="#E0E0E0"/>
<rect x="70" y="95.5714" width="59.3524" height="2.73333" fill="#E0E0E0"/>
<rect x="70" y="101.429" width="59.3524" height="2.73333" fill="#E0E0E0"/>
<rect x="70" y="107.286" width="59.3524" height="2.73333" fill="#E0E0E0"/>
<rect x="70" y="113.143" width="59.3524" height="2.73333" fill="#E0E0E0"/>
<rect x="70" y="119" width="59.3524" height="2.73333" fill="#E0E0E0"/>
</svg>
